<svg id="Icon" xmlns="http://www.w3.org/2000/svg" viewBox="0 0 1475.35 1000"><defs><style>.cls-1{fill:#fff;}</style></defs><path class="cls-1" d="M570.7,417V223.83q-34.1,61.38-68.19,109.11C479.78,364.76,459.33,392,438.87,417Zm72.74-295.49V417H698l27.27,61.37H643.44v100H570.7v-100H363.86V417c43.19-50,84.1-100,120.47-154.57,36.37-52.28,63.64-100,84.1-143.2h75Z"/><polygon class="cls-1" points="995.75 121.55 843.46 317.02 829.82 337.48 829.82 337.48 829.82 121.55 752.54 121.55 752.54 580.69 829.82 580.69 829.82 355.67 829.82 355.67 843.46 376.12 1000.3 580.69 1102.58 580.69 904.83 339.75 1088.94 121.55 995.75 121.55"/><path class="cls-1" d="M188.84,780.71c0,65.92-31.82,100-93.19,100-29.55,0-52.28-9.1-65.92-25C13.82,839.81,7,814.81,7,783V644.33H45.64V783c0,43.18,18.18,63.64,54.55,63.64,18.19,0,31.82-4.54,38.64-15.91,9.1-11.36,13.64-25,13.64-45.46V644.33h36.37Z"/><polygon class="cls-1" points="234.3 644.34 234.3 878.45 363.86 878.45 363.86 844.36 272.94 844.36 272.94 644.34 234.3 644.34"/><polygon class="cls-1" points="341.13 644.34 341.13 678.43 407.05 678.43 407.05 878.45 447.96 878.45 447.96 678.43 513.88 678.43 513.88 644.34 341.13 644.34"/><path class="cls-1" d="M650.26,710.25c0-11.36-4.55-18.18-11.37-25s-18.18-9.09-31.82-9.09H575.25v75H604.8c11.36,0,22.73-4.55,29.55-11.37,13.63-6.82,15.91-15.91,15.91-29.55m6.82,168.2L629.8,810.26C623,792.08,611.62,783,598,783H579.79v95.46H541.15V644.33h75c25,0,43.19,4.55,56.83,15.92s20.45,27.27,20.45,45.46q0,23.87-13.63,40.91c-9.1,11.36-22.73,18.18-38.65,22.73h0c4.55,2.27,9.1,4.55,13.64,11.36a49.59,49.59,0,0,1,11.37,18.19l36.36,75H657.08Z"/><path class="cls-1" d="M829.82,678.43h0c-2.27,6.82-2.27,11.36-4.54,15.91l-31.83,90.92h70.47L832.1,694.34a72.43,72.43,0,0,0-2.28-15.91m68.19,200-20.45-59.09h-93.2l-20.45,59.09H720.72l88.65-234.12h43.18L941.2,878.45Z"/><polygon class="cls-1" points="1177.59 644.34 1177.59 742.07 1068.49 742.07 1068.49 644.34 1029.85 644.34 1029.85 878.45 1068.49 878.45 1068.49 776.17 1177.59 776.17 1177.59 878.45 1216.23 878.45 1216.23 644.34 1177.59 644.34"/><path class="cls-1" d="M1418.53,758c0-25-6.82-45.46-22.73-59.09s-36.37-20.46-63.65-20.46h-31.82V844.36h31.82c27.28,0,47.74-6.82,63.65-22.73,13.64-15.91,22.73-36.37,22.73-63.65m40.91,0c0,22.73-4.55,45.46-15.91,63.65s-25,31.82-45.46,40.91-40.91,13.64-65.92,13.64h-70.46V644.33h72.74c40.91,0,72.73,9.1,93.19,29.55,20.46,18.19,31.82,47.74,31.82,84.1"/></svg>