<svg id="Icon" xmlns="http://www.w3.org/2000/svg" viewBox="0 0 905.21 1000"><defs><style>.cls-1{fill:#fff;}</style></defs><polygon class="cls-1" points="75.61 609.34 75.61 739.58 228.6 739.58 228.6 802.54 75.61 802.54 75.61 986.87 2.5 986.87 2.5 546.38 240.87 546.38 240.87 609.34 75.61 609.34"/><path class="cls-1" d="M600.9,683q0,41.78-20.85,75.11t-59.31,51.78q-38.37,18.48-87.89,18.45H380.67V986.85h-73.1V546.36H443.64q75.9,0,116.61,35.33T600.9,683m-76.76,2.48c0-24.75-8-43.86-23.81-57.26s-39-20.15-69.27-20.15H380.67V766.62h47q45.49,0,71-20.58t25.5-60.53"/><path class="cls-1" d="M902.29,870.45q0,58-41.47,91.07T745,994.55c-18.45,0-38.07-2.65-59-8s-36.29-11.22-46-17.79v-79.9q19.32,18.15,51,30.73t62,12.61c22.72,0,40.21-4.65,52.35-14s18.28-22.89,18.28-40.73q0-23-18.11-42.08t-68.83-46.08q-49.68-26.12-74-56.05t-24.2-71.14q0-35.31,18.37-63.4t52.82-44q34.47-15.79,78-15.8a285.48,285.48,0,0,1,56.27,5.53c18.4,3.7,31.55,7.48,39.29,11.36v76.8c-11.66-9.66-26-17.23-43.17-22.89a163.75,163.75,0,0,0-51.73-8.44q-32.9,0-52.4,15.36t-19.49,39.9q0,17.24,6.44,29.5c4.31,8.23,11.1,16,20.28,23.37s25.89,17.41,50,30.11q58.41,30.36,83.72,61t25.37,69.88"/><path class="cls-1" d="M412.62,309.83q0,43-18.76,77.24T342,440.2q-33.17,18.93-74,18.89-70,0-110.61-53.44t-40.51-149.3q0-75.84,23.37-133.15T206.8,34.74q43.33-31.2,98.9-31.16,51.63,0,78,12.58V80.34q-37.47-19-74.32-19-54.1,0-86.46,45t-33,120.53h1.83a98.45,98.45,0,0,1,39.34-39.29,113.13,113.13,0,0,1,55.61-14.14q58,0,92,36.72t33.95,99.69m-71.89,5.83q0-40.59-19-62.83t-53.79-22.28q-32.9,0-53.91,21.8t-21.06,55a114.3,114.3,0,0,0,9.53,46.26q9.52,21.66,26.58,34.24c11.36,8.4,24.55,12.58,39.47,12.58q33.48,0,52.83-23.32t19.36-61.45"/><path class="cls-1" d="M751.13,228.74q0,110.56-40.55,170.48T595.7,459.1q-71.54,0-109.65-56.66T448,239.48Q448,123.7,488.18,63.6t117.05-60q145.95,0,145.9,225.19m-72.49,4.91q0-88.17-18.58-130.23T602.14,61.34q-82,0-82,176.32,0,81.06,20.45,122.23t60,41.16c25.85,0,45.12-14.23,58-42.69S678,288.31,678,233.65Z"/></svg>